<svg xmlns="http://www.w3.org/2000/svg" width="257" height="92" viewBox="0 0 257 92" version="1.1"><path d="M 210.251 3.475 C 192.674 7.411, 180.056 20.881, 177.006 38.965 C 172.283 66.963, 198.091 92.799, 225.991 88.002 C 237.278 86.062, 247.922 79.669, 252.230 72.242 L 253.959 69.260 246.345 66.064 L 238.731 62.868 235.616 65.883 C 224.229 76.904, 204.554 72.801, 197.082 57.849 C 189.468 42.612, 195.993 25.485, 211.355 20.382 C 219.721 17.603, 231.156 20.090, 236.332 25.813 L 238.163 27.838 244.332 24.920 C 247.724 23.315, 251.063 22.001, 251.750 22.001 C 254.097 21.999, 253.004 19.246, 249.034 15.155 C 238.969 4.783, 224.230 0.344, 210.251 3.475 M 16.500 5.866 C 7.809 9.824, 2.035 20.124, 3.411 29.212 C 5.002 39.721, 11.177 45.258, 28.749 51.930 C 34.662 54.175, 41.525 57.022, 44 58.256 C 48.005 60.253, 48.534 60.915, 48.812 64.275 C 49.100 67.763, 48.855 68.163, 45.594 69.525 C 41.758 71.128, 33.912 71.380, 27.364 70.112 L 23.228 69.310 16.602 78.155 L 9.977 87 30.239 86.991 L 50.500 86.981 55.704 83.996 C 62.377 80.170, 65.981 74.299, 66.730 66.038 C 67.194 60.923, 66.885 59.285, 64.560 54.533 C 61.068 47.395, 56.644 44.357, 40.342 37.899 C 23.770 31.334, 22.148 30.438, 21.396 27.442 C 20.032 22.008, 27.196 19.136, 37.817 20.860 L 43.134 21.722 50.067 13.489 C 53.880 8.961, 57 4.973, 57 4.628 C 57 4.283, 48.788 4.010, 38.750 4.022 C 23.257 4.041, 19.896 4.319, 16.500 5.866 M 143.750 13.728 C 139.298 14.194, 139.158 14.799, 142.631 18.547 C 145.228 21.349, 145.255 21.530, 144.691 32.443 C 144.377 38.524, 143.438 45.300, 142.604 47.500 C 141.770 49.700, 141.068 53.376, 141.044 55.668 C 140.963 63.385, 142.064 63, 120.093 63 C 99.425 63, 97.105 63.459, 99.082 67.153 C 99.996 68.861, 101.685 69, 121.464 69 C 139.579 69, 143.098 68.759, 144.429 67.429 C 145.293 66.564, 146.007 65.327, 146.016 64.679 C 146.042 62.718, 150.832 21.812, 151.569 17.250 C 152.331 12.531, 152.872 12.774, 143.750 13.728 M 134 74.762 C 127.808 76.693, 129.348 87, 135.829 87 C 138.691 87, 142 83.598, 142 80.655 C 142 77.125, 137.367 73.712, 134 74.762 M 103.655 76.829 C 100.256 80.585, 102.934 87, 107.902 87 C 113.119 87, 116.067 80.210, 112.429 76.571 C 110.307 74.450, 105.685 74.585, 103.655 76.829" stroke="none" fill="#ffffff" fill-rule="evenodd"/><path d="M 108.750 16.080 C 107.226 16.968, 107 18.769, 107 30.015 C 107 45.341, 106.727 45, 119 45 C 131.275 45, 131 45.343, 131 30 C 131 18.240, 130.825 16.977, 129.066 16.035 C 126.584 14.707, 111.049 14.741, 108.750 16.080 M 113 19 C 113 19.556, 115.667 20, 119 20 C 122.333 20, 125 19.556, 125 19 C 125 18.444, 122.333 18, 119 18 C 115.667 18, 113 18.444, 113 19 M 116.332 36.578 C 115.999 37.445, 116.463 38.892, 117.363 39.792 C 118.879 41.307, 119.121 41.307, 120.637 39.792 C 122.681 37.747, 121.743 35, 119 35 C 117.865 35, 116.665 35.710, 116.332 36.578" stroke="none" fill="#facc15" fill-rule="evenodd"/><path d="M 103.500 7.733 C 100.279 8.539, 96.086 11.933, 94.485 15.029 C 92.460 18.945, 92.621 25.297, 95.005 35.520 C 98.921 52.318, 100.565 53.500, 120 53.500 C 141.398 53.500, 143.940 51.342, 144.773 32.468 C 145.249 21.669, 145.197 21.316, 142.722 18.646 C 141.326 17.138, 139.400 14.239, 138.444 12.203 C 137.487 10.166, 136.208 8.169, 135.602 7.765 C 134.391 6.958, 106.707 6.930, 103.500 7.733 M 108.750 16.080 C 107.226 16.968, 107 18.769, 107 30.015 C 107 45.341, 106.727 45, 119 45 C 131.275 45, 131 45.343, 131 30 C 131 18.240, 130.825 16.977, 129.066 16.035 C 126.584 14.707, 111.049 14.741, 108.750 16.080 M 113 19 C 113 19.556, 115.667 20, 119 20 C 122.333 20, 125 19.556, 125 19 C 125 18.444, 122.333 18, 119 18 C 115.667 18, 113 18.444, 113 19 M 116.332 36.578 C 115.999 37.445, 116.463 38.892, 117.363 39.792 C 118.879 41.307, 119.121 41.307, 120.637 39.792 C 122.681 37.747, 121.743 35, 119 35 C 117.865 35, 116.665 35.710, 116.332 36.578" stroke="none" fill="#080705" fill-rule="evenodd"/></svg>